<mxfile host="app.diagrams.net" modified="2023-06-24T12:03:56.139Z" agent="Mozilla/5.0 (Windows NT 10.0; Win64; x64) AppleWebKit/537.36 (KHTML, like Gecko) Chrome/114.0.0.0 Safari/537.36" etag="NWH3WxktAX3b5emiIz8I" version="21.3.2" type="device">
  <diagram name="Pagina-1" id="i_QAk7FXhubLlCC6trvr">
    <mxGraphModel dx="652" dy="293" grid="1" gridSize="10" guides="1" tooltips="1" connect="1" arrows="1" fold="1" page="1" pageScale="1" pageWidth="827" pageHeight="1169" math="0" shadow="0">
      <root>
        <mxCell id="0" />
        <mxCell id="1" parent="0" />
        <mxCell id="ZwUMcqTqeEHNXdpdNUSc-19" style="edgeStyle=orthogonalEdgeStyle;rounded=0;orthogonalLoop=1;jettySize=auto;html=1;entryX=0;entryY=0.5;entryDx=0;entryDy=0;exitX=1;exitY=0.5;exitDx=0;exitDy=0;" parent="1" source="ZwUMcqTqeEHNXdpdNUSc-37" target="ZwUMcqTqeEHNXdpdNUSc-31" edge="1">
          <mxGeometry relative="1" as="geometry">
            <mxPoint x="790" y="411.9999999999999" as="sourcePoint" />
            <mxPoint x="920" y="464" as="targetPoint" />
          </mxGeometry>
        </mxCell>
        <mxCell id="ZwUMcqTqeEHNXdpdNUSc-21" style="edgeStyle=orthogonalEdgeStyle;rounded=0;orthogonalLoop=1;jettySize=auto;html=1;entryX=0;entryY=0.5;entryDx=0;entryDy=0;" parent="1" source="ZwUMcqTqeEHNXdpdNUSc-10" target="ZwUMcqTqeEHNXdpdNUSc-31" edge="1">
          <mxGeometry relative="1" as="geometry">
            <mxPoint x="920" y="464" as="targetPoint" />
          </mxGeometry>
        </mxCell>
        <mxCell id="ZwUMcqTqeEHNXdpdNUSc-10" value="Calcolo della potenza disponibile&#xa;(Pᴀ)" style="dashed=0;strokeColor=#dddddd;shadow=1;strokeWidth=1;labelPosition=center;verticalLabelPosition=middle;align=center;verticalAlign=middle;spacingLeft=5;fontSize=12;whiteSpace=wrap;fontStyle=0" parent="1" vertex="1">
          <mxGeometry x="540" y="390" width="250" height="64" as="geometry" />
        </mxCell>
        <mxCell id="ZwUMcqTqeEHNXdpdNUSc-15" style="edgeStyle=orthogonalEdgeStyle;rounded=0;orthogonalLoop=1;jettySize=auto;html=1;exitX=1;exitY=0.5;exitDx=0;exitDy=0;entryX=0;entryY=0.5;entryDx=0;entryDy=0;" parent="1" source="ZwUMcqTqeEHNXdpdNUSc-12" target="ZwUMcqTqeEHNXdpdNUSc-13" edge="1">
          <mxGeometry relative="1" as="geometry" />
        </mxCell>
        <mxCell id="ZwUMcqTqeEHNXdpdNUSc-12" value="Simulazione potenza elettrica e rendimento motore su eCalc&#xa;(Pᴇ, ηᴍ)" style="dashed=0;strokeColor=#FF8000;shadow=1;strokeWidth=1;labelPosition=center;verticalLabelPosition=middle;align=center;verticalAlign=middle;spacingLeft=5;fontSize=12;whiteSpace=wrap;fontStyle=0" parent="1" vertex="1">
          <mxGeometry x="270" y="210" width="190" height="64" as="geometry" />
        </mxCell>
        <mxCell id="SbKTKKORfgtGkee0HA-L-5" style="edgeStyle=orthogonalEdgeStyle;rounded=0;orthogonalLoop=1;jettySize=auto;html=1;exitX=1;exitY=0.5;exitDx=0;exitDy=0;entryX=0.75;entryY=0;entryDx=0;entryDy=0;" edge="1" parent="1" source="ZwUMcqTqeEHNXdpdNUSc-13" target="ZwUMcqTqeEHNXdpdNUSc-10">
          <mxGeometry relative="1" as="geometry" />
        </mxCell>
        <mxCell id="ZwUMcqTqeEHNXdpdNUSc-13" value="Calcolo potenza all&#39;albero&#xa;(Pꜱ)" style="dashed=0;strokeColor=#dddddd;shadow=1;strokeWidth=1;labelPosition=center;verticalLabelPosition=middle;align=center;verticalAlign=middle;spacingLeft=5;fontSize=12;whiteSpace=wrap;fontStyle=0" parent="1" vertex="1">
          <mxGeometry x="490" y="210" width="170" height="64" as="geometry" />
        </mxCell>
        <mxCell id="SbKTKKORfgtGkee0HA-L-7" style="edgeStyle=orthogonalEdgeStyle;rounded=0;orthogonalLoop=1;jettySize=auto;html=1;exitX=1;exitY=0.5;exitDx=0;exitDy=0;entryX=0.75;entryY=0;entryDx=0;entryDy=0;" edge="1" parent="1" source="ZwUMcqTqeEHNXdpdNUSc-14" target="ZwUMcqTqeEHNXdpdNUSc-10">
          <mxGeometry relative="1" as="geometry" />
        </mxCell>
        <mxCell id="ZwUMcqTqeEHNXdpdNUSc-14" value="Ottenimento del rendimento dell&#39;elica dal datasheet&#xa;(ηᴘ)" style="dashed=0;strokeColor=#DDDDDD;shadow=1;strokeWidth=1;labelPosition=center;verticalLabelPosition=middle;align=center;verticalAlign=middle;spacingLeft=5;fontSize=12;whiteSpace=wrap;fontStyle=0" parent="1" vertex="1">
          <mxGeometry x="490" y="300" width="170" height="64" as="geometry" />
        </mxCell>
        <mxCell id="ZwUMcqTqeEHNXdpdNUSc-31" value="" style="strokeColor=#dddddd;shadow=1;strokeWidth=1;rounded=1;absoluteArcSize=1;arcSize=2;" parent="1" vertex="1">
          <mxGeometry x="830" y="440" width="240" height="60" as="geometry" />
        </mxCell>
        <mxCell id="ZwUMcqTqeEHNXdpdNUSc-32" value="&lt;font color=&quot;#000000&quot;&gt;Calcolo velocità di decollo&amp;nbsp;&lt;br&gt;(Vᴛᴏ)&lt;/font&gt;" style="editableCssRules=.*;html=1;fontColor=#999999;shape=image;verticalLabelPosition=middle;labelBackgroundColor=#ffffff;verticalAlign=middle;labelPosition=right;align=left;spacingLeft=20;part=1;points=[];imageAspect=0;image=data:image/svg+xml,PHN2ZyB4bWxucz0iaHR0cDovL3d3dy53My5vcmcvMjAwMC9zdmciIHhtbG5zOnY9Imh0dHBzOi8vdmVjdGEuaW8vbmFubyIgd2lkdGg9IjQyNC4wMDEwMzc1OTc2NTYyNSIgaGVpZ2h0PSIyMTMuOTk4Mzk3ODI3MTQ4NDQiIHZpZXdCb3g9Ii0wLjAwMDAyMDQ4Mjg0MTEzNjk4MTczMyAwIDQyNC4wMDEwMzc1OTc2NTYyNSAyMTMuOTk4Mzk3ODI3MTQ4NDQiPiYjeGE7CTxzdHlsZSB0eXBlPSJ0ZXh0L2NzcyI+JiN4YTsJLnN0MHtmaWxsOiM0Mjg1ZjQ7fSYjeGE7CTwvc3R5bGU+JiN4YTsJPHBhdGggY2xhc3M9InN0MCIgZD0iTTk5LjQzMSA0Ni44NTRsLjM3NC4yODkgMTA1Ljc1OCA4My4yMDhhNDIuMDggNDIuMDggMCAwIDEgNC43MTUtLjM4OWwuNzg5LS4wMTNjMTcuNDExLS4wMDQgMzMuMDE4IDEwLjc1OCAzOS4yMjMgMjcuMDQ5czEuNzIxIDM0LjcyNS0xMS4yNzEgNDYuMzMzYTQxLjkzIDQxLjkzIDAgMCAxLTQ3LjI1MyA1Ljk1NiA0Mi4wNCA0Mi4wNCAwIDAgMS0yMi40NDQtNDEuNTcxbC4wNTYtLjUxOS0uMDI2LS4wM0w4Ny43IDU4Ljk3NmMtOS40ODEtMTIuNTYyLS41NzUtMjEuNDg2IDExLjczLTEyLjEyM3ptMzA2LjgzOCAxMjcuNzI2YzkuNzkzIDAgMTcuNzMyIDcuOTQ5IDE3LjczMiAxNy43NTVzLTcuOTM5IDE3Ljc1NS0xNy43MzIgMTcuNzU1LTE3LjczMi03Ljk0OS0xNy43MzItMTcuNzU1IDcuOTM5LTE3Ljc1NSAxNy43MzItMTcuNzU1ek02MC4yNDEgNjguNzk3bDIwLjQyMyAyOC4zMmEyMTcuMTYgMjE3LjE2IDAgMCAwLTQ2LjkyIDk3LjM5OSAxNy4wNCAxNy4wNCAwIDAgMS0xMS4yODggMTIuOTYxYy01LjgyMyAxLjk2NC0xMi4yNTEuNjMzLTE2LjgxOS0zLjQ4MmExNy4wNiAxNy4wNiAwIDAgMS01LjIyOS0xNi4zOGM4LjgxNy00NC4zMDUgMjkuNDk5LTg1LjM3NiA1OS44MzMtMTE4LjgxN3ptMzIyLjc2MiA0MS4zMDhjOS43OTMgMCAxNy43MzIgNy45NDkgMTcuNzMyIDE3Ljc1NXMtNy45MzkgMTcuNzU1LTE3LjczMiAxNy43NTUtMTcuNzMyLTcuOTQ5LTE3LjczMi0xNy43NTUgNy45MzktMTcuNzU1IDE3LjczMi0xNy43NTV6bS00MS42MjgtNTUuMDk0YzkuNzkzIDAgMTcuNzMyIDcuOTQ5IDE3LjczMiAxNy43NTVzLTcuOTM5IDE3Ljc1NS0xNy43MzIgMTcuNzU1LTE3LjczMi03Ljk0OS0xNy43MzItMTcuNzU1IDcuOTM5LTE3Ljc1NSAxNy43MzItMTcuNzU1em0tNTcuNzkyLTM4Ljk3OWM5Ljc5MyAwIDE3LjczMiA3Ljk0OSAxNy43MzIgMTcuNzU1cy03LjkzOSAxNy43NTUtMTcuNzMyIDE3Ljc1NS0xNy43MzItNy45NDktMTcuNzMyLTE3Ljc1NSA3LjkzOS0xNy43NTUgMTcuNzMyLTE3Ljc1NXptLTEzMy4wNzQtNC4zMjdjOS43OTMgMCAxNy43MzIgNy45NDkgMTcuNzMyIDE3Ljc1NXMtNy45MzkgMTcuNzU1LTE3LjczMiAxNy43NTUtMTcuNzMyLTcuOTQ5LTE3LjczMi0xNy43NTUgNy45MzktMTcuNzU1IDE3LjczMi0xNy43NTV6TTIxNy4zNTcgMGM5Ljc5MyAwIDE3LjczMiA3Ljk0OSAxNy43MzIgMTcuNzU1UzIyNy4xNSAzNS41MSAyMTcuMzU3IDM1LjUxcy0xNy43MzItNy45NDktMTcuNzMyLTE3Ljc1NVMyMDcuNTY0IDAgMjE3LjM1NyAweiIgZmlsbD0iIzQyODVmNCIvPiYjeGE7PC9zdmc+;" parent="ZwUMcqTqeEHNXdpdNUSc-31" vertex="1">
          <mxGeometry width="48" height="24" relative="1" as="geometry">
            <mxPoint x="15" y="18" as="offset" />
          </mxGeometry>
        </mxCell>
        <mxCell id="ZwUMcqTqeEHNXdpdNUSc-36" style="edgeStyle=orthogonalEdgeStyle;rounded=0;orthogonalLoop=1;jettySize=auto;html=1;entryX=0.5;entryY=0;entryDx=0;entryDy=0;" parent="1" source="ZwUMcqTqeEHNXdpdNUSc-34" target="ZwUMcqTqeEHNXdpdNUSc-31" edge="1">
          <mxGeometry relative="1" as="geometry" />
        </mxCell>
        <mxCell id="ZwUMcqTqeEHNXdpdNUSc-34" value="Ipotesi di drag trascurabile&#xa;Ipotesi di attrito volvente trascurabile" style="dashed=0;shadow=1;strokeWidth=1;labelPosition=center;verticalLabelPosition=middle;align=center;verticalAlign=middle;spacingLeft=5;fontSize=12;whiteSpace=wrap;strokeColor=#FF0000;" parent="1" vertex="1">
          <mxGeometry x="840" y="350" width="220" height="50" as="geometry" />
        </mxCell>
        <mxCell id="ZwUMcqTqeEHNXdpdNUSc-37" value="" style="strokeColor=#dddddd;shadow=1;strokeWidth=1;rounded=1;absoluteArcSize=1;arcSize=2;" parent="1" vertex="1">
          <mxGeometry x="540" y="480" width="250" height="60" as="geometry" />
        </mxCell>
        <mxCell id="ZwUMcqTqeEHNXdpdNUSc-38" value="&lt;font color=&quot;#000000&quot;&gt;Scelta set di variabili di progetto&lt;br&gt;(Mᴛᴏᴛ, Xᴛᴏ)&lt;br&gt;&lt;/font&gt;" style="editableCssRules=.*;html=1;fontColor=#999999;shape=image;verticalLabelPosition=middle;labelBackgroundColor=#ffffff;verticalAlign=middle;labelPosition=right;align=left;spacingLeft=20;part=1;points=[];imageAspect=0;image=data:image/svg+xml,PHN2ZyB4bWxucz0iaHR0cDovL3d3dy53My5vcmcvMjAwMC9zdmciIHhtbG5zOnY9Imh0dHBzOi8vdmVjdGEuaW8vbmFubyIgd2lkdGg9IjE2LjEyMDAwMDgzOTIzMzQiIGhlaWdodD0iMjAiIHZpZXdCb3g9IjAgMCAxNi4xMjAwMDA4MzkyMzM0IDIwIj4mI3hhOwk8c3R5bGUgdHlwZT0idGV4dC9jc3MiPiYjeGE7CS5zdDB7ZmlsbDojNDI4NWY0O30mI3hhOwkuc3Qxe2ZpbGw6IzY2OWRmNjt9JiN4YTsJLnN0MntmaWxsOiNhZWNiZmE7fSYjeGE7CTwvc3R5bGU+JiN4YTsJPHBhdGggY2xhc3M9InN0MiIgZD0iTTEyLjEyIDJ2MmgydjJoMlYyek0wIDZoMi4xMlY0aDJWMmgtNHY0eiIvPiYjeGE7CTxwYXRoIGNsYXNzPSJzdDEiIGQ9Ik0xNi4xMiA2VjJsLTIgMnYyem0tMiAzbC04IDExVjl6Ii8+JiN4YTsJPHBhdGggY2xhc3M9InN0MCIgZD0iTTYuMTIgOC4xMmw0IDIuODgtNCA1LjAzeiIvPiYjeGE7CTxwYXRoIGNsYXNzPSJzdDIiIGQ9Ik0xMC4xMiAwdjExaC04eiIvPiYjeGE7CTxwYXRoIGNsYXNzPSJzdDAiIGQ9Ik0xMi4xMiAxNmgydi0yaDJ2NGgtNHoiLz4mI3hhOwk8cGF0aCBjbGFzcz0ic3QxIiBkPSJNMi4xMiAxNnYtMmgtMnY0aDQuMTMtLjEzdi0yeiIvPiYjeGE7CTxwYXRoIGNsYXNzPSJzdDIiIGQ9Ik0yLjEyIDE2di0yaC0ydjR6Ii8+JiN4YTs8L3N2Zz4=;" parent="ZwUMcqTqeEHNXdpdNUSc-37" vertex="1">
          <mxGeometry width="24" height="30" relative="1" as="geometry">
            <mxPoint x="18" y="15" as="offset" />
          </mxGeometry>
        </mxCell>
      </root>
    </mxGraphModel>
  </diagram>
</mxfile>
